PathFileType	4	(X/Y/Z)	C:\Users\Basilio\Documents\Thesis Gigler\squatting_fais\c3dfiles\044\SLS_back_pre5\markers_experimental.trc
DataRate	CameraRate	NumFrames	NumMarkers	Units	OrigDataRate	OrigDataStartFrame	OrigNumFrames
200.000000	200.000000	4	63	mm	200.000000	522	1393
Frame#	Time	FHD			LBHD			RBHD			C7			T10			LSHO			LUUPA			LMUPA			LDUPA			LLEP			LMEP			LUL			LRFIN			RSHO			RUPA1			RMUPA			RDUPA			RLEP			RMEP			RUL			RUFIN			LASI			RASI			USACR			LSACR			RSACR			LTHI1			LTHI2			LTHI3			LTHI4			LLFC			LMFC			LTIB1			LTIB2			LTIB3			LTIB4			LLMAL			LMMAL			LHEE			LMT1			LMT2			LMT5			RTHI			RTHI2			RTHI3			RTHI4			RLFC			RMFC			RTIB1			RTIB2			RTIB3			RTIB4			RLMAL			RHEE			RMT1			RMT2			RMT5			RMMAL			CLAV			LRAD			RRAD			*61			*62			
		X1	Y1	Z1	X2	Y2	Z2	X3	Y3	Z3	X4	Y4	Z4	X5	Y5	Z5	X6	Y6	Z6	X7	Y7	Z7	X8	Y8	Z8	X9	Y9	Z9	X10	Y10	Z10	X11	Y11	Z11	X12	Y12	Z12	X13	Y13	Z13	X14	Y14	Z14	X15	Y15	Z15	X16	Y16	Z16	X17	Y17	Z17	X18	Y18	Z18	X19	Y19	Z19	X20	Y20	Z20	X21	Y21	Z21	X22	Y22	Z22	X23	Y23	Z23	X24	Y24	Z24	X25	Y25	Z25	X26	Y26	Z26	X27	Y27	Z27	X28	Y28	Z28	X29	Y29	Z29	X30	Y30	Z30	X31	Y31	Z31	X32	Y32	Z32	X33	Y33	Z33	X34	Y34	Z34	X35	Y35	Z35	X36	Y36	Z36	X37	Y37	Z37	X38	Y38	Z38	X39	Y39	Z39	X40	Y40	Z40	X41	Y41	Z41	X42	Y42	Z42	X43	Y43	Z43	X44	Y44	Z44	X45	Y45	Z45	X46	Y46	Z46	X47	Y47	Z47	X48	Y48	Z48	X49	Y49	Z49	X50	Y50	Z50	X51	Y51	Z51	X52	Y52	Z52	X53	Y53	Z53	X54	Y54	Z54	X55	Y55	Z55	X56	Y56	Z56	X57	Y57	Z57	X58	Y58	Z58	X59	Y59	Z59	X60	Y60	Z60	X61	Y61	Z61	X62	Y62	Z62	X63	Y63	Z63	

523	2.61	-124.6604461669922	1691.366333007813	-1062.921752929688	-257.1074523925782	1644.905029296875	-1134.946166992188	-295.3727416992188	1630.91162109375	-973.5900878906252	-310.2762451171876	1468.085571289063	-1052.891967773438	-362.0530395507813	1177.817993164063	-1011.429809570313	-225.5012969970704	1472.890014648438	-1199.906616210938	-69.29615783691408	1449.307739257813	-1306.043090820313	-39.64160919189454	1463.802124023438	-1267.785278320313	-1.237297058105469	1446.232543945313	-1309.901611328125	57.73839569091798	1448.03662109375	-1302.79443359375	53.12489700317384	1372.737060546875	-1285.792602539063	316.4770202636719	1480.057739257813	-1190.297607421875	332.2202758789063	1499.546630859375	-1088.823486328125	-215.0203704833985	1478.223754882813	-900.579040527344	-60.82384490966798	1468.902709960938	-802.476989746094	-32.40180587768555	1479.394287109375	-842.7557373046877	8.655624389648439	1469.809204101563	-800.297790527344	69.44569396972658	1473.809448242188	-811.3852539062502	69.36759185791017	1391.6748046875	-817.1550903320315	323.0394592285157	1489.146240234375	-934.7886352539065	321.3162841796876	1468.890014648438	-1048.773559570313	-248.5167236328126	952.035827636719	-1095.319458007813	-237.9379882812501	942.2567138671877	-881.9279785156252	-394.5204162597657	1039.302490234375	-980.0158691406252	-410.4028625488282	1008.874816894531	-1005.304870605469	-403.1293334960939	1011.771911621094	-948.5925903320315	-279.7611083984376	733.9522705078126	-1168.75830078125	-216.2990264892579	678.3815307617189	-1168.4267578125	-173.8765716552735	698.4271850585939	-1159.752319335938	-217.4226226806641	618.9542846679689	-1151.953247070313	-146.5547790527344	484.2534179687501	-1128.455688476563	-140.4008941650391	490.7081604003907	-1008.0771484375	-176.2834014892578	322.9514770507813	-1030.212646484375	-217.5720977783204	279.5241088867188	-1096.2119140625	-189.4209442138672	271.7721557617188	-1056.427612304688	-235.5028228759766	212.5444030761719	-1018.350158691406	-327.0591125488282	120.7197036743164	-1056.383056640625	-307.5924072265626	133.0496520996094	-971.1284790039065	-397.3338928222657	103.5731582641602	-1005.967590332031	-191.5954895019532	57.39413833618165	-980.2991333007815	-190.169677734375	59.29042053222658	-1027.1650390625	-226.5574493408204	47.26367950439454	-1074.52099609375	-324.0026550292969	684.5313720703126	-783.7817382812502	-274.3522644042969	636.9068603515626	-779.7509765625002	-243.7163848876954	642.1690673828126	-788.0966796875002	-289.9466552734376	553.4583129882814	-787.8532714843752	-304.1603088378907	471.9195251464845	-798.5720825195315	-308.1799621582032	457.9039306640626	-914.175231933594	-396.8929443359376	380.9551696777344	-822.789245605469	-489.1305541992189	434.2364501953126	-793.1763916015627	-481.8336181640626	389.2285156250001	-803.0383300781252	-524.9342651367189	361.9205627441407	-830.574890136719	-694.1371459960939	380.1426696777344	-831.6633300781252	-735.6301879882814	422.6847229003907	-891.805847167969	-694.2462768554689	217.6842346191407	-894.9339599609377	-702.5794067382814	209.4450988769532	-857.880798339844	-743.0305175781251	242.3510284423829	-815.857604980469	-668.7084350585939	357.1119384765626	-912.715515136719	-175.2958984375	1419.3095703125	-1056.529418945313	nan	nan	nan	nan	nan	nan	nan	nan	nan	nan	nan	nan	
524	2.615	-124.5600814819336	1689.830688476563	-1062.833129882813	-256.5603942871094	1644.541748046875	-1134.980102539063	-295.1142578125001	1629.446044921875	-973.5336914062502	-310.4589233398438	1467.404907226563	-1053.273193359375	-361.9510803222657	1177.122192382813	-1011.530334472656	-225.4550018310547	1471.808227539063	-1199.935791015625	-68.94593811035158	1448.64990234375	-1305.971435546875	-39.33195495605469	1463.09375	-1267.832641601563	-1.012491941452027	1445.616943359375	-1309.90380859375	58.14075851440431	1447.459716796875	-1302.728881835938	53.36908340454103	1372.360473632813	-1285.90087890625	316.9485473632813	1479.390747070313	-1190.02978515625	332.3098144531251	1499.048461914063	-1088.594116210938	-214.983871459961	1477.251831054688	-900.5936279296877	-60.87755203247072	1468.106323242188	-802.4738769531252	-32.35298919677735	1478.828735351563	-842.709411621094	8.580066680908205	1468.882934570313	-800.2210693359377	69.49288940429689	1472.938354492188	-811.3184204101565	69.61119842529298	1390.654907226563	-817.0044555664065	323.3786926269532	1488.331665039063	-934.6176757812502	321.7360839843751	1468.236206054688	-1048.650756835938	-248.6261444091797	951.1275024414065	-1095.454833984375	-238.2093658447266	941.0844726562502	-881.893493652344	-394.5972290039064	1038.666625976563	-980.0854492187502	-410.5828552246095	1008.0048828125	-1005.294982910156	-403.0888061523439	1010.395812988281	-948.5739746093752	-279.4392395019532	733.2710571289064	-1168.769653320313	-215.5102081298829	677.4354248046876	-1168.464599609375	-174.5716552734375	698.8073120117189	-1159.7841796875	-217.1139068603516	618.3314208984376	-1152.057861328125	-146.5014953613282	484.2746887207032	-1128.337646484375	-139.8838195800782	490.4363098144532	-1007.938293457031	-175.9928894042969	322.5440368652344	-1030.161987304688	-217.2837982177735	279.3483276367188	-1096.172973632813	-188.7870483398438	271.2637329101563	-1056.427124023438	-235.1852416992188	212.2183227539063	-1018.336364746094	-327.0401000976563	120.7236480712891	-1056.361450195313	-307.6152954101563	133.0828094482422	-971.0893554687502	-397.3342895507814	103.5552749633789	-1005.954467773438	-191.5444793701172	57.34168243408205	-980.2237548828127	-190.1513671875	59.31362152099611	-1027.197631835938	-226.6114807128907	47.33887100219727	-1074.529663085938	-323.9489135742188	683.7601318359376	-784.537292480469	-274.5139770507813	635.8822021484376	-780.117858886719	-243.7978515625001	640.9482421875001	-788.4831542968752	-290.1060485839844	552.4635009765626	-788.3742675781252	-304.2130737304688	470.6243286132814	-799.0643310546877	-308.5582275390626	457.1101074218751	-914.6280517578127	-397.1635742187501	379.9965209960938	-822.989196777344	-489.1073608398439	433.3771057128907	-793.630554199219	-482.1480407714845	388.3820800781251	-803.374450683594	-525.1161499023439	361.1565551757813	-830.7980957031252	-694.4537353515626	379.5653686523438	-831.780212402344	-735.5026855468751	421.5100402832032	-891.886657714844	-694.7001953125001	216.9395599365235	-895.062194824219	-703.0989990234376	208.5068511962891	-857.6795654296877	-743.0437622070314	241.3103179931641	-815.9959716796877	-669.1920166015626	356.3993530273438	-912.9688720703127	-175.2762603759766	1418.205322265625	-1056.517211914063	nan	nan	nan	nan	nan	nan	nan	nan	nan	nan	nan	nan	
525	2.62	-124.2218780517578	1689.103393554688	-1062.67626953125	-256.1649169921876	1643.373779296875	-1134.947387695313	-294.8587341308594	1628.711181640625	-973.5434570312502	-309.9323120117188	1466.166259765625	-1053.062744140625	-362.0399780273438	1176.1220703125	-1011.505126953125	-225.2675018310547	1470.563232421875	-1199.891479492188	-68.61563873291017	1447.880737304688	-1305.953369140625	-39.08168411254884	1462.505126953125	-1267.760131835938	-0.5613809227943422	1444.938354492188	-1309.916259765625	58.53114700317384	1446.703002929688	-1302.662475585938	53.9034767150879	1371.89794921875	-1285.969970703125	317.1386108398438	1478.960327148438	-1189.849487304688	332.6461486816407	1498.298706054688	-1088.539306640625	-214.6284332275391	1475.849853515625	-900.6760253906252	-60.9672317504883	1467.419189453125	-802.9256591796877	-32.23275375366212	1477.780517578125	-842.7872314453127	8.777970314025881	1467.938842773438	-800.1865844726565	69.67428588867189	1471.99951171875	-811.3427734375002	69.77368927001955	1390.209594726563	-817.6314086914065	323.4143371582032	1487.747924804688	-934.3392333984377	322.0780639648438	1467.698608398438	-1048.525024414063	-248.7538146972657	950.1429443359377	-1095.468505859375	-238.4153442382813	940.208435058594	-882.0503540039065	-394.698944091797	1037.610961914063	-980.0030517578127	-410.7712402343751	1007.172790527344	-1005.244812011719	-403.405487060547	1009.723022460938	-948.5800781250002	-279.5159606933594	732.4299926757814	-1168.83447265625	-215.244857788086	676.7955932617189	-1168.505981445313	-174.3475646972657	698.4595336914064	-1159.846801757813	-216.6229248046876	617.6508789062501	-1152.1923828125	-145.8441009521485	483.8647460937501	-1128.224365234375	-139.1214904785157	489.9212341308595	-1007.985412597656	-175.3978271484375	322.4624023437501	-1030.051635742188	-216.096176147461	279.6953125000001	-1095.970092773438	-188.5515441894532	271.6659851074219	-1056.498901367188	-235.0241088867188	212.0913391113282	-1018.248107910156	-326.9697875976563	120.7440338134766	-1056.370239257813	-307.4970092773438	133.0043334960938	-971.005798339844	-397.3039855957032	103.5910263061524	-1006.102600097656	-191.5325012207032	57.38912582397462	-980.3046875000002	-190.107177734375	59.28442382812501	-1027.174438476563	-226.5476226806641	47.32862091064454	-1074.514404296875	-324.1973266601563	682.3499145507814	-784.4323730468752	-274.5370483398438	635.0908203125001	-781.0540161132815	-243.9393157958985	639.8518066406251	-788.7393798828127	-290.4231872558594	551.7984008789064	-789.3040771484377	-304.3804626464844	470.1522827148439	-800.042663574219	-308.6994628906251	455.9064941406251	-915.2691040039065	-397.1809692382814	378.9183349609376	-823.9481201171877	-489.2392578125001	432.4971618652345	-793.9559326171877	-482.296112060547	387.3842163085939	-803.641784667969	-525.2269287109376	360.3740844726563	-831.1641235351565	-694.6278686523439	379.1627502441407	-832.0671386718752	-735.7764892578126	421.042449951172	-892.038513183594	-694.8591918945314	216.1000518798829	-895.4187011718752	-703.4315795898439	207.7323760986329	-857.6676025390627	-743.3224487304689	240.5423736572266	-816.117370605469	-669.6406860351564	355.7565307617188	-913.184753417969	-174.6101226806641	1417.249267578125	-1056.60498046875	nan	nan	nan	nan	nan	nan	nan	nan	nan	nan	nan	nan	
526	2.625	-123.8165283203125	1687.99560546875	-1062.633178710938	-255.9834747314454	1642.502685546875	-1134.919555664063	-294.5275268554688	1627.359130859375	-973.5740966796877	-309.7981262207032	1464.895751953125	-1053.13134765625	-362.0215148925782	1175.0400390625	-1011.587524414063	-224.8192901611329	1469.909790039063	-1199.901977539063	-68.3605422973633	1447.0615234375	-1305.957275390625	-38.8685531616211	1461.6806640625	-1267.688110351563	-0.3613121211528779	1444.205078125	-1309.995483398438	58.82455825805665	1446.063232421875	-1302.677490234375	54.58152389526369	1371.2001953125	-1286.26220703125	317.4926147460938	1478.576538085938	-1189.79248046875	332.6546325683594	1498.041137695313	-1088.355224609375	-214.5692291259766	1475.406860351563	-900.818542480469	-60.88117599487306	1466.33251953125	-802.716003417969	-32.11883544921876	1476.988159179688	-842.7194824218752	8.814827919006349	1467.163696289063	-800.182312011719	69.6935501098633	1471.301879882813	-811.3072509765627	69.76451110839845	1389.360717773438	-817.519470214844	323.5510864257813	1487.262573242188	-934.2051391601565	322.3018188476563	1467.169189453125	-1048.404174804688	-248.9853210449219	949.4035644531252	-1095.518676757813	-238.6319122314454	939.064880371094	-882.105163574219	-394.7262268066407	1036.56494140625	-980.066833496094	-411.0356445312501	1006.419921875	-1005.224365234375	-403.5993957519532	1008.958251953125	-948.6223144531252	-279.3064575195313	731.8470458984376	-1168.895385742188	-215.5852203369141	676.6774291992189	-1168.5078125	-174.1911315917969	697.8359985351564	-1159.806396484375	-216.210433959961	617.1743774414064	-1152.324584960938	-145.1368255615235	483.570281982422	-1128.182983398438	-138.4203796386719	489.5262451171876	-1007.980285644531	-174.7876129150391	322.1495666503907	-1029.99560546875	-216.5321502685547	278.8507385253907	-1096.0791015625	-188.3244934082032	271.4984436035157	-1056.547607421875	-234.9376983642579	211.7755279541016	-1018.151306152344	-326.9330139160157	120.7130889892578	-1056.323364257813	-307.5114746093751	133.0050811767578	-971.0216064453127	-397.2817993164064	103.4879531860352	-1006.043518066406	-191.505599975586	57.37021255493165	-980.2409667968752	-190.0076904296875	59.3694534301758	-1027.130859375	-226.5516204833985	47.26433563232423	-1074.4951171875	-324.2196350097657	681.3845825195314	-784.716247558594	-274.7272338867188	634.0290527343751	-781.3327636718752	-243.8704986572266	638.9930419921876	-789.2280883789065	-290.2023925781251	550.3469238281251	-789.1431884765627	-304.2199401855469	468.8955078125001	-799.5361328125002	-308.9339599609376	454.5171203613282	-914.868835449219	-397.5108032226564	378.0020751953126	-824.6240234375002	-489.459442138672	431.6071166992189	-794.331970214844	-482.3162841796876	386.5679321289064	-804.2793579101565	-525.7094116210939	359.4567565917969	-831.313659667969	-694.6287841796876	378.1822204589844	-832.2879638671877	-736.0090942382814	420.4285583496095	-892.1323242187502	-695.1989135742189	215.3235321044922	-895.6909790039065	-703.8471069335939	207.3622741699219	-858.1079101562502	-743.4772949218751	240.2758941650391	-816.332702636719	-670.0178222656251	354.9824523925782	-913.4619140625002	-173.546875	1415.702758789063	-1056.716064453125	nan	nan	nan	nan	nan	nan	-304.4150085449219	468.7001342773439	-800.0028076171877	-309.0072631835938	454.977264404297	-915.779968261719	
